Coordinates
version=1
nRows=4
nColumns=40
inDegrees=yes

Units are S.I. units (second, meters, Newtons, ...)
If the header above contains a line with 'inDegrees', this indicates whether rotational values are in degrees (yes) or radians (no).

endheader
time	pelvis_tilt	pelvis_list	pelvis_rotation	pelvis_tx	pelvis_ty	pelvis_tz	hip_flexion_r	hip_adduction_r	hip_rotation_r	knee_angle_r	knee_angle_r_beta	ankle_angle_r	subtalar_angle_r	mtp_angle_r	hip_flexion_l	hip_adduction_l	hip_rotation_l	knee_angle_l	knee_angle_l_beta	ankle_angle_l	subtalar_angle_l	mtp_angle_l	lumbar_extension	lumbar_bending	lumbar_rotation	arm_flex_r	arm_add_r	arm_rot_r	elbow_flex_r	pro_sup_r	wrist_flex_r	wrist_dev_r	arm_flex_l	arm_add_l	arm_rot_l	elbow_flex_l	pro_sup_l	wrist_flex_l	wrist_dev_l
     10.50000000000000000000	     15.30025975014233452498	     10.88453815949833369814	   -178.15314551344337701266	      0.27728270649265440717	      0.91570707347373825336	     -0.92105970369436185319	     28.90451664899168804368	    -17.17997939724810763096	    -29.90870942315772396114	     15.67599163343147239402	      0.27359766751846320565	     -3.29074837024838728894	      0.00000000000000000000	      0.00000000000000000000	     39.83120469478212299919	    -35.03244797617081474073	     -5.66917816412697117556	     21.79352055600207549446	      0.38036868930330147709	     -1.84943615657402915531	      0.00000000000000000000	      0.00000000000000000000	     -2.13447689405864693413	     15.67412976770408228333	     -1.30307943549171212361	     11.55654669279203972110	    -12.57604423571670260174	     12.50789260547739267793	     21.33370317529427140357	     84.59955287990884187366	      0.00000000000000000000	      0.00000000000000000000	     13.40907611057445514291	     -5.48120000566038800827	     28.93286909987205746120	     20.56267362206395787894	     84.06002713697353101452	      0.00000000000000000000	      0.00000000000000000000
     10.50500000000000078160	     15.40983227380820963504	     10.92991148229588205254	   -177.93197369065825341750	      0.27706328827179255159	      0.91530637443607165693	     -0.92048017765554301928	     28.91217225078883146239	    -17.27752680126465278931	    -30.15347486375056718089	     15.67367314682426560069	      0.27355720229350405370	     -3.18481782548212510875	      0.00000000000000000000	      0.00000000000000000000	     40.18528036410163650771	    -34.91407658807495550946	     -5.38359975618362174288	     21.93654622885204830141	      0.38286495820941379709	     -1.79001835789091812146	      0.00000000000000000000	      0.00000000000000000000	     -1.60461610809099419761	     15.68933252986918347460	     -1.51403264286641570102	     11.32936570054613589775	    -12.60742793126471461562	     12.43905740015646088636	     21.29802799455043427201	     84.42044037191020322553	      0.00000000000000000000	      0.00000000000000000000	     13.09819764814045228718	     -5.43769529912686078177	     28.53498071539518576856	     20.77571683475460062596	     83.78061398354728339655	      0.00000000000000000000	      0.00000000000000000000
     10.50999999999999978684	     15.35762935986445931746	     10.47422789388580888215	   -177.87547585497455315817	      0.27667678016666025220	      0.91537309513020326257	     -0.92000653754836292375	     28.94947983965051463429	    -17.82659155871833434048	    -30.02915863503088900188	     15.85264137900959013905	      0.27668078720161165540	     -3.08244398433846411578	      0.00000000000000000000	      0.00000000000000000000	     39.86216411883505372771	    -34.47102391239268115442	     -5.76184033217785529501	     21.94320181579686845907	      0.38298112011525364817	     -1.65805735175480961630	      0.00000000000000000000	      0.00000000000000000000	     -1.35339910654758921460	     15.16637724565697986634	     -1.56044213054318681166	     11.27085732257140193724	    -12.45022520764834972340	     12.19272504057208372785	     20.99164534036615137325	     84.53121985113706671200	      0.00000000000000000000	      0.00000000000000000000	     12.88539732733058862379	     -4.85200166845381541947	     25.92110828272486955370	     20.32923079760647411263	     84.13333079529861890933	      0.00000000000000000000	      0.00000000000000000000
     10.51500000000000056843	     16.05859129031582099856	     10.49633037282399250500	   -177.72337588455548029742	      0.27748032972343528169	      0.91359270690505423040	     -0.91950674697677969860	     29.79241309414732796768	    -18.10424308562109274590	    -30.35387139687935231791	     16.18461200374952824177	      0.28247476762322609734	     -2.93643980679162819314	      0.00000000000000000000	      0.00000000000000000000	     41.03894530556294739654	    -34.26416349456864196554	     -5.21450247400425137556	     22.24604846989739215246	      0.38826679135795616471	     -1.69613065427251163975	      0.00000000000000000000	      0.00000000000000000000	     -0.24204568193739650628	     15.12398671630360169615	     -1.66690885511187736334	     10.50719244595643431239	    -12.72521123069952686535	     12.37795606235596856948	     22.03299089232286434026	     81.56001229556635223616	      0.00000000000000000000	      0.00000000000000000000	     12.20073092262082603554	     -4.89876707546106260338	     25.24254510043383348261	     21.48970369693901005803	     81.14287177903996450823	      0.00000000000000000000	      0.00000000000000000000
